<?xml version="1.0" encoding="UTF-8"?>
<svg xmlns="http://www.w3.org/2000/svg" viewBox="0 0 256 256">
  <defs>
    <linearGradient id="tail" x1="32" y1="200" x2="224" y2="56" gradientUnits="userSpaceOnUse">
      <stop offset="0" stop-color="#00b7ff" />
      <stop offset="0.5" stop-color="#2d6bff" />
      <stop offset="1" stop-color="#7f1bff" />
    </linearGradient>
    <linearGradient id="body" x1="48" y1="208" x2="208" y2="48" gradientUnits="userSpaceOnUse">
      <stop offset="0" stop-color="#0affd2" />
      <stop offset="1" stop-color="#005bff" />
    </linearGradient>
    <linearGradient id="highlight" x1="88" y1="168" x2="184" y2="80" gradientUnits="userSpaceOnUse">
      <stop offset="0" stop-color="#ffffff" stop-opacity="0.9" />
      <stop offset="1" stop-color="#ffffff" stop-opacity="0" />
    </linearGradient>
  </defs>
  <g fill="none" stroke-linecap="round" stroke-linejoin="round">
    <path d="M40 128c24-32 60-56 96-56s72 24 96 56c-24 32-60 56-96 56S64 160 40 128z" fill="url(#body)" />
    <path d="M104 152c-16-8-32-8-48 0 16 20 32 32 48 40 16-8 32-20 48-40-16-8-32-8-48 0z" fill="url(#tail)" />
    <circle cx="172" cy="116" r="14" fill="#0b0d21" />
    <circle cx="170" cy="114" r="6" fill="#4ff6ff" />
    <path d="M72 128c20-24 44-36 64-36 20 0 44 12 64 36" stroke="url(#highlight)" stroke-width="16" opacity="0.35" />
  </g>
  <text x="128" y="220" font-family="'Fira Sans', 'Helvetica Neue', Arial, sans-serif" font-size="40" text-anchor="middle" fill="#0b0d21" font-weight="700">pullsfish</text>
</svg>
