<svg xmlns="http://www.w3.org/2000/svg" width="240" height="240" viewBox="0 0 240 240" role="img" aria-labelledby="title desc">
  <title id="title">Revolution minimal logo</title>
  <desc id="desc">Stylised letter R inside a circular motif</desc>
  <defs>
    <linearGradient id="grad" x1="0%" y1="0%" x2="100%" y2="100%">
      <stop offset="0%" stop-color="#1d1d1f" />
      <stop offset="100%" stop-color="#e63946" />
    </linearGradient>
  </defs>
  <circle cx="120" cy="120" r="112" fill="none" stroke="#1d1d1f" stroke-width="12" />
  <path d="M120 44c-36 0-64 28-64 76 0 47 28 76 68 76 20 0 36-5 48-16l-18-20c-8 8-16 11-28 11-22 0-36-15-36-47 0-33 14-48 36-48 10 0 18 3 24 9l-16 18h28l24-27C174 56 150 44 120 44z" fill="url(#grad)" />
</svg>
